<svg width="50" height="50" viewBox="0 0 50 50" fill="none" xmlns="http://www.w3.org/2000/svg">
<circle cx="24.8889" cy="25" r="24.3889" fill="#44954C" stroke="#38793E"/>
<path d="M12.9077 38.0635L12 36.6171L24.2431 28.9296C24.5767 28.7177 25.0186 28.7667 25.3011 29.048L29.253 33L37.4758 24.7772L38.6842 25.9856L29.8578 34.8119C29.5377 35.132 28.9706 35.132 28.6494 34.8119L24.5756 30.7381L12.9077 38.0635Z" fill="white"/>
<path d="M38.9336 29.9375H37.2253V26.235H33.5239V24.5278H38.0794C38.5509 24.5278 38.9336 24.9105 38.9336 25.382V29.9375Z" fill="white"/>
<path d="M18.7354 30.6368C15.0921 29.138 12.7391 25.6223 12.7391 21.6806C12.7391 16.3426 17.0817 12 22.4197 12C27.7577 12 32.1003 16.3426 32.1003 21.6806C32.1003 24.6542 30.7666 27.4183 28.4399 29.2633L27.3784 27.9239C29.294 26.4058 30.3919 24.1292 30.3919 21.6806C30.3919 17.2844 26.8147 13.7083 22.4197 13.7083C18.0247 13.7083 14.4475 17.2844 14.4475 21.6806C14.4475 24.9275 16.3859 27.8226 19.3846 29.0571L18.7354 30.6368Z" fill="white"/>
<path d="M22.8525 25.6667H20.4266V23.9583H22.8525C23.242 23.9583 23.5586 23.6417 23.5586 23.2522C23.5586 22.8513 23.242 22.5347 22.8525 22.5347H21.9869C20.6556 22.5347 19.5725 21.4517 19.5725 20.1203C19.5725 18.7775 20.6556 17.6945 21.9869 17.6945H24.4128V19.4028H21.9869C21.5974 19.4028 21.2808 19.7194 21.2808 20.1089C21.2808 20.5098 21.5974 20.8264 21.9869 20.8264H22.8525C24.1838 20.8264 25.2669 21.9095 25.2669 23.2409C25.2669 24.5836 24.1838 25.6667 22.8525 25.6667Z" fill="white"/>
<path d="M21.5655 16.8403H23.2739V18.5486H21.5655V16.8403Z" fill="white"/>
<path d="M21.5655 24.8125H23.2739V26.5208H21.5655V24.8125Z" fill="white"/>
</svg>
