<svg width="50" height="50" viewBox="0 0 50 50" fill="none" xmlns="http://www.w3.org/2000/svg">
<circle cx="24.8889" cy="25" r="24.3889" fill="#D11515" stroke="#910E0E"/>
<path d="M31.059 25.9784L29.5331 25.2158C30.1014 24.0884 30.3895 22.8817 30.3895 21.6297C30.3895 17.2562 26.8127 13.6984 22.4183 13.6984C18.0239 13.6984 14.4472 17.2562 14.4472 21.6297C14.4472 21.9583 14.4676 22.2869 14.5075 22.6087L12.8131 22.8183C12.7641 22.4285 12.739 22.0297 12.739 21.6309C12.739 16.3203 17.0822 12 22.4183 12C27.7544 12 32.0976 16.3203 32.0976 21.6309C32.0976 23.1503 31.7491 24.613 31.059 25.9784Z" fill="white"/>
<path d="M22.851 25.5965H20.4255V23.897H22.851C23.2405 23.897 23.557 23.582 23.557 23.1945C23.557 22.7956 23.2405 22.4807 22.851 22.4807H21.9856C20.6544 22.4807 19.5715 21.4031 19.5715 20.0786C19.5715 18.7427 20.6544 17.6652 21.9856 17.6652H24.4111V19.3648H21.9856C21.5961 19.3648 21.2796 19.6798 21.2796 20.0673C21.2796 20.4661 21.5961 20.7811 21.9856 20.7811H22.851C24.1822 20.7811 25.2651 21.8586 25.2651 23.1831C25.2651 24.519 24.1822 25.5965 22.851 25.5965Z" fill="white"/>
<path d="M21.5643 16.8154H23.2724V18.515H21.5643V16.8154Z" fill="white"/>
<path d="M21.5643 24.7467H23.2724V26.4463H21.5643V24.7467Z" fill="white"/>
<path d="M37.4724 37.8119L29.2507 29.6313L25.2993 33.563C25.018 33.8428 24.5751 33.8915 24.2414 33.6808L12 26.0327L12.9076 24.5927L24.5728 31.8815L28.6461 27.8286C28.9797 27.4966 29.5206 27.4966 29.8543 27.8286L38.6795 36.6097L37.4724 37.8119Z" fill="white"/>
<path d="M38.0759 38.06H33.521V36.3604H37.2219V32.678H38.93V37.2102C38.93 37.6793 38.5474 38.06 38.0759 38.06Z" fill="white"/>
</svg>
