<svg width="50" height="50" viewBox="0 0 50 50" fill="none" xmlns="http://www.w3.org/2000/svg">
<circle cx="24.8889" cy="25" r="24.3889" fill="#7C79F4" stroke="#605EDB"/>
<path d="M37.0884 20.0985H11.8416C11.377 20.0985 11 19.7214 11 19.2569V17.5738C11 17.263 11.1706 16.978 11.4455 16.831L24.0689 10.0985C24.3169 9.96718 24.612 9.96718 24.86 10.0985L37.4834 16.831C37.7594 16.978 37.93 17.263 37.93 17.5738V19.2569C37.93 19.7214 37.553 20.0985 37.0884 20.0985ZM12.6831 18.4153H36.2469V18.0787L24.465 11.7951L12.6831 18.0787V18.4153Z" fill="white"/>
<path d="M11.8416 35.2466H37.0884V36.9297H11.8416V35.2466Z" fill="white"/>
<path d="M24.8914 30.7583H22.5014V29.0751H24.8914C25.2751 29.0751 25.5871 28.7632 25.5871 28.3794C25.5871 27.9845 25.2751 27.6725 24.8914 27.6725H24.0386C22.7269 27.6725 21.6598 26.6054 21.6598 25.2937C21.6598 23.9708 22.7269 22.9037 24.0386 22.9037H26.4286V24.5868H24.0386C23.6549 24.5868 23.3429 24.8987 23.3429 25.2825C23.3429 25.6775 23.6549 25.9894 24.0386 25.9894H24.8914C26.2031 25.9894 27.2702 27.0565 27.2702 28.3682C27.2702 29.6912 26.2031 30.7583 24.8914 30.7583Z" fill="white"/>
<path d="M23.6234 22.0621H25.3066V23.7452H23.6234V22.0621Z" fill="white"/>
<path d="M23.6234 29.9167H25.3066V31.5998H23.6234V29.9167Z" fill="white"/>
<path d="M14.3663 19.2569H16.0494V36.0882H14.3663V19.2569Z" fill="white"/>
<path d="M32.8806 19.2569H34.5637V36.0882H32.8806V19.2569Z" fill="white"/>
</svg>
