<svg width="95" height="19" viewBox="0 0 95 19" fill="none" xmlns="http://www.w3.org/2000/svg">
<path d="M17.5156 4.45312V12.7656H0.296875V4.45312C0.297345 4.2958 0.360051 4.14505 0.471299 4.0338C0.582547 3.92255 0.733297 3.85984 0.890625 3.85938H16.9219C17.0792 3.85984 17.23 3.92255 17.3412 4.0338C17.4524 4.14505 17.5152 4.2958 17.5156 4.45312Z" fill="#57A4FF"/>
<path d="M17.5156 4.45312V12.7656H0.296875V11.5781H12.7656C13.7105 11.5781 14.6166 11.2028 15.2847 10.5347C15.9528 9.86659 16.3281 8.96046 16.3281 8.01562V4.45312C16.3277 4.2958 16.2649 4.14505 16.1537 4.0338C16.0425 3.92255 15.8917 3.85984 15.7344 3.85938H16.9219C17.0792 3.85984 17.23 3.92255 17.3412 4.0338C17.4524 4.14505 17.5152 4.2958 17.5156 4.45312Z" fill="#2488FF"/>
<path d="M15.1406 7.42189H16.3281V11.5781H15.1406V7.42189Z" fill="#FF7956"/>
<path d="M12.7656 8.01564H13.9531V11.5781H12.7656V8.01564Z" fill="#FFDE55"/>
<path d="M12.4688 17.5156H5.34375L6.23438 16.3281H11.5781L12.4688 17.5156Z" fill="#C6C5CA"/>
<path d="M10.3906 9.20314H11.5781V11.5781H10.3906V9.20314Z" fill="#00DDC2"/>
<path d="M11.0438 1.36563C11.3913 1.82775 11.5789 2.39051 11.5781 2.96875C11.5782 3.06798 11.5723 3.16712 11.5603 3.26562H8.90625V0.296875C9.32108 0.296691 9.73024 0.393185 10.1013 0.578702C10.4723 0.764218 10.795 1.03365 11.0438 1.36563Z" fill="#FF7956"/>
<path d="M7.07156 4.91031C6.80791 4.66016 6.59778 4.35911 6.45388 4.02538C6.30997 3.69165 6.2353 3.33218 6.23438 2.96875C6.23438 2.26012 6.51588 1.58052 7.01695 1.07945C7.51802 0.578375 8.19762 0.296875 8.90625 0.296875V3.26562H11.5603C11.5391 3.46836 11.4933 3.66776 11.4237 3.85938C11.2757 4.27884 11.0252 4.65466 10.6949 4.95269C10.3647 5.25073 9.96526 5.46153 9.53286 5.56594C9.10046 5.67035 8.64882 5.66507 8.21898 5.55057C7.78914 5.43607 7.39473 5.21599 7.07156 4.91031Z" fill="#FFDE55"/>
<path d="M11.5603 4.15625C11.5391 4.35899 11.4933 4.55838 11.4238 4.75C11.2757 5.16946 11.0252 5.54528 10.6949 5.84332C10.3647 6.14135 9.96526 6.35215 9.53286 6.45656C9.10046 6.56098 8.64883 6.55569 8.21899 6.4412C7.78915 6.3267 7.39473 6.10661 7.07156 5.80094C6.80792 5.55079 6.59778 5.24973 6.45388 4.916C6.30998 4.58227 6.2353 4.22281 6.23438 3.85938C6.2342 3.71022 6.24611 3.56129 6.27 3.41406C6.29695 3.56558 6.33667 3.71455 6.38875 3.85938C6.52811 4.25971 6.7624 4.62031 7.07156 4.91031C7.3747 5.19728 7.74094 5.4091 8.14085 5.52874C8.54076 5.64838 8.96316 5.67249 9.37408 5.59914C9.78501 5.52579 10.173 5.35703 10.5068 5.10643C10.8406 4.85582 11.111 4.53037 11.2961 4.15625H11.5603Z" fill="#2488FF"/>
<path d="M10.9844 16.3281H6.82812L7.125 14.5469H10.6875L10.9844 16.3281Z" fill="#57A4FF"/>
<path d="M17.5156 12.7656V13.9531C17.5152 14.1105 17.4524 14.2612 17.3412 14.3725C17.23 14.4837 17.0792 14.5464 16.9219 14.5469H0.890625C0.733297 14.5464 0.582547 14.4837 0.471299 14.3725C0.360051 14.2612 0.297345 14.1105 0.296875 13.9531V12.7656H17.5156Z" fill="#C6C5CA"/>
<path d="M7.125 14.5469H10.6875V15.4375H7.125V14.5469Z" fill="#2488FF"/>
<path d="M2.96875 6.53127H4.45312C4.45312 6.82485 4.36607 7.11184 4.20296 7.35594C4.03986 7.60004 3.80803 7.7903 3.5368 7.90265C3.26556 8.015 2.9671 8.04439 2.67916 7.98712C2.39122 7.92984 2.12673 7.78847 1.91914 7.58088C1.71155 7.37328 1.57017 7.10879 1.5129 6.82085C1.45562 6.53291 1.48502 6.23445 1.59737 5.96322C1.70972 5.69199 1.89997 5.46016 2.14408 5.29705C2.38818 5.13395 2.67517 5.04689 2.96875 5.04689V6.53127Z" fill="#FFDE55"/>
<path d="M10.3906 9.20314H11.5781V11.5781H10.3906V9.20314Z" fill="#00D7DF"/>
<path d="M15.1406 7.42189H16.3281V8.01564H15.1406V7.42189Z" fill="#FF5023"/>
<path d="M12.7656 8.01564H13.9531V8.60939H12.7656V8.01564Z" fill="#EBBF00"/>
<path d="M10.3906 9.20314H11.5781V9.79689H10.3906V9.20314Z" fill="#009698"/>
<path d="M16.9219 3.5625H11.8156C11.8549 3.36703 11.8748 3.16814 11.875 2.96875C11.8741 2.4284 11.7252 1.8986 11.4445 1.43688L12.5667 0.593754H14.8438V4.30155e-06H12.4688C12.4045 -0.00034448 12.3418 0.0205257 12.2906 0.0593793L11.0883 0.961879C10.8113 0.658812 10.4742 0.416764 10.0986 0.251161C9.72288 0.0855586 9.31681 3.21183e-05 8.90625 3.21183e-05C8.49569 3.21183e-05 8.08962 0.0855586 7.71394 0.251161C7.33826 0.416764 7.00119 0.658812 6.72422 0.961879L5.52187 0.0593793C5.47065 0.0205257 5.40804 -0.00034448 5.34375 4.30155e-06H2.96875V0.593754H5.24578L6.36797 1.43688C6.08726 1.8986 5.93838 2.4284 5.9375 2.96875C5.9377 3.16814 5.95758 3.36703 5.99688 3.5625H0.890625C0.654633 3.56321 0.428509 3.65727 0.261637 3.82414C0.0947646 3.99101 0.000704808 4.21714 0 4.45313V13.9531C0.000704808 14.1891 0.0947646 14.4152 0.261637 14.5821C0.428509 14.749 0.654633 14.8431 0.890625 14.8438H6.82812V16.0313H5.9375C5.89147 16.0316 5.84612 16.0424 5.80495 16.063C5.76378 16.0836 5.72787 16.1134 5.7 16.15L4.80938 17.3375C4.7763 17.3816 4.75615 17.4341 4.7512 17.489C4.74625 17.5439 4.75669 17.5991 4.78134 17.6484C4.806 17.6977 4.8439 17.7392 4.8908 17.7682C4.9377 17.7972 4.99174 17.8125 5.04688 17.8125H12.7656C12.8208 17.8125 12.8748 17.7972 12.9217 17.7682C12.9686 17.7392 13.0065 17.6977 13.0312 17.6484C13.0558 17.5991 13.0663 17.5439 13.0613 17.489C13.0563 17.4341 13.0362 17.3816 13.0031 17.3375L12.1125 16.15C12.0846 16.1134 12.0487 16.0836 12.0076 16.063C11.9664 16.0424 11.921 16.0316 11.875 16.0313H10.9844V14.8438H16.9219C17.1579 14.8431 17.384 14.749 17.5509 14.5821C17.7177 14.4152 17.8118 14.1891 17.8125 13.9531V4.45313C17.8118 4.21714 17.7177 3.99101 17.5509 3.82414C17.384 3.65727 17.1579 3.56321 16.9219 3.5625ZM9.20312 0.614536C9.73866 0.681874 10.2351 0.930108 10.6103 1.31813L9.91563 1.84063L10.2719 2.31563L10.9666 1.79313C11.1725 2.15073 11.281 2.5561 11.2812 2.96875H9.20312V0.614536ZM6.84594 1.79313L7.54063 2.31563L7.89687 1.84063L7.20219 1.31813C7.57738 0.930108 8.07384 0.681874 8.60938 0.614536V3.26563C8.60938 3.34437 8.64065 3.41988 8.69633 3.47555C8.752 3.53123 8.82751 3.5625 8.90625 3.5625H11.2041C11.1202 3.8907 10.967 4.19713 10.7548 4.4612C10.5426 4.72528 10.2764 4.94088 9.97397 5.09351C9.67156 5.24615 9.33997 5.33228 9.0015 5.34612C8.66304 5.35996 8.32553 5.3012 8.01166 5.17377C7.69779 5.04634 7.41483 4.8532 7.18181 4.60733C6.94878 4.36147 6.77108 4.06857 6.66065 3.74832C6.55022 3.42808 6.50962 3.0879 6.54158 2.75066C6.57354 2.41342 6.67732 2.08693 6.84594 1.79313ZM11.7266 16.625L12.1719 17.2188H5.64062L6.08594 16.625H11.7266ZM7.42188 16.0313V14.8438H10.3906V16.0313H7.42188ZM17.2188 13.9531C17.2188 14.0319 17.1875 14.1074 17.1318 14.1631C17.0761 14.2187 17.0006 14.25 16.9219 14.25H0.890625C0.811889 14.25 0.736378 14.2187 0.680703 14.1631C0.625028 14.1074 0.59375 14.0319 0.59375 13.9531V13.0625H17.2188V13.9531ZM17.2188 12.4688H0.59375V4.45313C0.59375 4.37439 0.625028 4.29888 0.680703 4.24321C0.736378 4.18753 0.811889 4.15625 0.890625 4.15625H6.18687C6.41757 4.68564 6.79777 5.13617 7.28082 5.45259C7.76388 5.76901 8.32879 5.93756 8.90625 5.93756C9.48371 5.93756 10.0486 5.76901 10.5317 5.45259C11.0147 5.13617 11.3949 4.68564 11.6256 4.15625H16.9219C17.0006 4.15625 17.0761 4.18753 17.1318 4.24321C17.1875 4.29888 17.2188 4.37439 17.2188 4.45313V12.4688Z" fill="black"/>
<path d="M15.4375 0H16.625V0.59375H15.4375V0Z" fill="black"/>
<path d="M12.4688 1.1875H13.0625V1.78125H12.4688V1.1875Z" fill="black"/>
<path d="M13.6562 1.1875H16.625V1.78125H13.6562V1.1875Z" fill="black"/>
<path d="M12.4688 2.375H14.8438V2.96875H12.4688V2.375Z" fill="black"/>
<path d="M15.4375 2.375H16.625V2.96875H15.4375V2.375Z" fill="black"/>
<path d="M1.1875 0H2.375V0.59375H1.1875V0Z" fill="black"/>
<path d="M4.75 1.1875H5.34375V1.78125H4.75V1.1875Z" fill="black"/>
<path d="M1.1875 1.1875H4.15625V1.78125H1.1875V1.1875Z" fill="black"/>
<path d="M2.96875 2.375H5.34375V2.96875H2.96875V2.375Z" fill="black"/>
<path d="M1.1875 2.375H2.375V2.96875H1.1875V2.375Z" fill="black"/>
<path d="M1.1875 8.90627H2.67188V9.50002H1.1875V8.90627Z" fill="black"/>
<path d="M3.26562 8.90627H8.90625V9.50002H3.26562V8.90627Z" fill="black"/>
<path d="M1.1875 10.0938H5.9375V10.6875H1.1875V10.0938Z" fill="black"/>
<path d="M6.53125 10.0938H8.90625V10.6875H6.53125V10.0938Z" fill="black"/>
<path d="M1.1875 11.2812H4.15625V11.875H1.1875V11.2812Z" fill="black"/>
<path d="M4.75 11.2812H8.90625V11.875H4.75V11.2812Z" fill="black"/>
<path d="M10.3906 11.875H11.5781C11.6569 11.875 11.7324 11.8437 11.788 11.7881C11.8437 11.7324 11.875 11.6569 11.875 11.5781V9.20314C11.875 9.1244 11.8437 9.04889 11.788 8.99322C11.7324 8.93754 11.6569 8.90627 11.5781 8.90627H10.3906C10.3119 8.90627 10.2364 8.93754 10.1807 8.99322C10.125 9.04889 10.0938 9.1244 10.0938 9.20314V11.5781C10.0938 11.6569 10.125 11.7324 10.1807 11.7881C10.2364 11.8437 10.3119 11.875 10.3906 11.875ZM10.6875 9.50002H11.2812V11.2813H10.6875V9.50002Z" fill="black"/>
<path d="M13.9531 7.71877H12.7656C12.6869 7.71877 12.6114 7.75004 12.5557 7.80572C12.5 7.86139 12.4688 7.9369 12.4688 8.01564V11.5781C12.4688 11.6569 12.5 11.7324 12.5557 11.7881C12.6114 11.8437 12.6869 11.875 12.7656 11.875H13.9531C14.0319 11.875 14.1074 11.8437 14.163 11.7881C14.2187 11.7324 14.25 11.6569 14.25 11.5781V8.01564C14.25 7.9369 14.2187 7.86139 14.163 7.80572C14.1074 7.75004 14.0319 7.71877 13.9531 7.71877ZM13.6562 11.2813H13.0625V8.31252H13.6562V11.2813Z" fill="black"/>
<path d="M16.3281 7.12502H15.1406C15.0619 7.12502 14.9864 7.15629 14.9307 7.21197C14.875 7.26764 14.8438 7.34315 14.8438 7.42189V11.5781C14.8438 11.6569 14.875 11.7324 14.9307 11.7881C14.9864 11.8437 15.0619 11.875 15.1406 11.875H16.3281C16.4069 11.875 16.4824 11.8437 16.538 11.7881C16.5937 11.7324 16.625 11.6569 16.625 11.5781V7.42189C16.625 7.34315 16.5937 7.26764 16.538 7.21197C16.4824 7.15629 16.4069 7.12502 16.3281 7.12502ZM16.0312 11.2813H15.4375V7.71877H16.0312V11.2813Z" fill="black"/>
<path d="M2.96875 8.31252C3.44102 8.31204 3.89382 8.12423 4.22776 7.79028C4.56171 7.45633 4.74953 7.00354 4.75 6.53127C4.75 6.45253 4.71872 6.37702 4.66305 6.32134C4.60737 6.26567 4.53186 6.23439 4.45312 6.23439H3.26562V5.04689C3.26562 4.96815 3.23435 4.89264 3.17867 4.83697C3.123 4.78129 3.04749 4.75002 2.96875 4.75002C2.49633 4.75002 2.04327 4.93768 1.70922 5.27173C1.37517 5.60578 1.1875 6.05885 1.1875 6.53127C1.1875 7.00368 1.37517 7.45675 1.70922 7.7908C2.04327 8.12485 2.49633 8.31252 2.96875 8.31252ZM2.67188 5.38117V6.53127C2.67188 6.61 2.70315 6.68551 2.75883 6.74119C2.8145 6.79686 2.89001 6.82814 2.96875 6.82814H4.11855C4.06615 7.03083 3.96111 7.21606 3.81405 7.36507C3.667 7.51408 3.48317 7.62156 3.28119 7.67662C3.07921 7.73169 2.86627 7.73238 2.66394 7.67863C2.46161 7.62488 2.27708 7.51859 2.12906 7.37054C1.98105 7.2225 1.8748 7.03795 1.82109 6.83561C1.76738 6.63326 1.76811 6.42032 1.82322 6.21835C1.87833 6.01638 1.98585 5.83258 2.13488 5.68555C2.28392 5.53853 2.46918 5.43352 2.67188 5.38117Z" fill="black"/>
<path d="M5.34375 6.53127H5.9375V7.12502H5.34375V6.53127Z" fill="black"/>
<path d="M6.53125 6.53127H8.90625V7.12502H6.53125V6.53127Z" fill="black"/>
<path d="M5.34375 7.71877H8.90625V8.31252H5.34375V7.71877Z" fill="black"/>
<path d="M11.8453 8.14834L12.3553 7.12502H13.9531C13.9967 7.12504 14.0397 7.11548 14.0792 7.09701C14.1186 7.07854 14.1535 7.05161 14.1814 7.01814L15.5767 5.34377H16.625V4.75002H15.4375C15.3939 4.74999 15.3509 4.75955 15.3114 4.77802C15.272 4.79649 15.2371 4.82342 15.2092 4.85689L13.8139 6.53127H12.1719C12.1165 6.53096 12.0621 6.54618 12.0148 6.57519C11.9676 6.60421 11.9295 6.64586 11.9047 6.69544L11.3947 7.71877H10.0938V8.31252H11.5781C11.6335 8.31282 11.6879 8.2976 11.7352 8.26859C11.7824 8.23957 11.8205 8.19792 11.8453 8.14834Z" fill="black"/>
<path d="M27.2969 13.25C27.2969 13.4844 27.2461 13.6875 27.1445 13.8594C27.043 14.0273 26.9121 14.166 26.752 14.2754C26.5918 14.3887 26.4082 14.4727 26.2012 14.5273C25.998 14.5781 25.791 14.6035 25.5801 14.6035C25.3145 14.6035 25.0684 14.5684 24.8418 14.498C24.6191 14.4238 24.4219 14.3145 24.25 14.1699C24.0781 14.0293 23.9375 13.8574 23.8281 13.6543C23.7188 13.4473 23.6465 13.2109 23.6113 12.9453H22.5039C22.5156 13.3125 22.5957 13.6465 22.7441 13.9473C22.8965 14.2441 23.1016 14.5039 23.3594 14.7266C23.6484 14.9844 23.9883 15.1816 24.3789 15.3184C24.7734 15.4551 25.1738 15.5234 25.5801 15.5234C25.9199 15.5234 26.2598 15.4766 26.5996 15.3828C26.9395 15.2852 27.2441 15.1406 27.5137 14.9492C27.7832 14.7617 28.002 14.5254 28.1699 14.2402C28.3418 13.9551 28.4277 13.6211 28.4277 13.2383C28.4277 12.8594 28.3477 12.5254 28.1875 12.2363C28.0312 11.9473 27.8242 11.7031 27.5664 11.5039C27.3047 11.2891 27.0156 11.1133 26.6992 10.9766C26.3828 10.8359 26.0664 10.7168 25.75 10.6191C25.5586 10.5605 25.3535 10.4922 25.1348 10.4141C24.9199 10.3359 24.7207 10.2383 24.5371 10.1211C24.3496 10.0039 24.1953 9.86133 24.0742 9.69336C23.9531 9.52148 23.8906 9.3125 23.8867 9.06641C23.8867 8.83984 23.9316 8.64062 24.0215 8.46875C24.1152 8.29688 24.2402 8.15234 24.3965 8.03516C24.5488 7.91797 24.7227 7.83008 24.918 7.77148C25.1172 7.71289 25.3203 7.68359 25.5273 7.68359C25.7852 7.68359 26.0156 7.72461 26.2188 7.80664C26.4258 7.88477 26.6035 7.99609 26.752 8.14062C26.9004 8.28516 27.0195 8.45898 27.1094 8.66211C27.1992 8.86133 27.2598 9.08398 27.291 9.33008H28.4043C28.3965 8.93945 28.3125 8.58594 28.1523 8.26953C27.9922 7.95312 27.7793 7.68359 27.5137 7.46094C27.248 7.23828 26.9434 7.06641 26.5996 6.94531C26.2559 6.82031 25.8984 6.75781 25.5273 6.75781C25.1914 6.75781 24.8574 6.81055 24.5254 6.91602C24.1934 7.01758 23.8965 7.16797 23.6348 7.36719C23.373 7.56641 23.1602 7.81055 22.9961 8.09961C22.8359 8.38867 22.7559 8.7168 22.7559 9.08398C22.7559 9.45117 22.8359 9.77148 22.9961 10.0449C23.1602 10.3145 23.3711 10.5488 23.6289 10.748C23.8828 10.9434 24.1641 11.1113 24.4727 11.252C24.7852 11.3887 25.0918 11.5059 25.3926 11.6035C25.5996 11.6699 25.8145 11.7441 26.0371 11.8262C26.2637 11.9082 26.4707 12.0098 26.6582 12.1309C26.8457 12.2559 26.998 12.4082 27.1152 12.5879C27.2363 12.7676 27.2969 12.9883 27.2969 13.25ZM32.8398 15.5234C33.457 15.5234 33.9746 15.4004 34.3926 15.1543C34.8145 14.9043 35.1309 14.6191 35.3418 14.2988L34.6797 13.7832C34.4805 14.041 34.2305 14.248 33.9297 14.4043C33.6289 14.5605 33.2852 14.6387 32.8984 14.6387C32.6055 14.6387 32.3379 14.584 32.0957 14.4746C31.8535 14.3652 31.6465 14.2148 31.4746 14.0234C31.3066 13.8438 31.1738 13.6367 31.0762 13.4023C30.9824 13.168 30.9219 12.8965 30.8945 12.5879V12.5469H35.4238V12.0605C35.4238 11.6191 35.3672 11.209 35.2539 10.8301C35.1445 10.4512 34.9766 10.1211 34.75 9.83984C34.5234 9.5625 34.2383 9.3457 33.8945 9.18945C33.5547 9.0293 33.1562 8.94922 32.6992 8.94922C32.3359 8.94922 31.9805 9.02344 31.6328 9.17188C31.2891 9.32031 30.9824 9.5332 30.7129 9.81055C30.4395 10.0918 30.2207 10.4355 30.0566 10.8418C29.8926 11.2441 29.8105 11.7012 29.8105 12.2129V12.459C29.8105 12.9004 29.8848 13.3086 30.0332 13.6836C30.1816 14.0586 30.3887 14.3828 30.6543 14.6562C30.9199 14.9297 31.2383 15.1426 31.6094 15.2949C31.9844 15.4473 32.3945 15.5234 32.8398 15.5234ZM32.6992 9.83984C32.9766 9.83984 33.2148 9.89062 33.4141 9.99219C33.6172 10.0938 33.7852 10.2266 33.918 10.3906C34.0508 10.5547 34.1543 10.75 34.2285 10.9766C34.3027 11.1992 34.3398 11.4082 34.3398 11.6035V11.6562H30.9297C30.9727 11.3633 31.0469 11.1055 31.1523 10.8828C31.2617 10.6562 31.3945 10.4648 31.5508 10.3086C31.707 10.1562 31.8828 10.041 32.0781 9.96289C32.2734 9.88086 32.4805 9.83984 32.6992 9.83984ZM37.2461 15.4062H38.3301V10.8594C38.4043 10.7227 38.4902 10.5977 38.5879 10.4844C38.6895 10.3711 38.7988 10.2715 38.916 10.1855C39.0605 10.0879 39.2188 10.0117 39.3906 9.95703C39.5625 9.89844 39.748 9.86914 39.9473 9.86914C40.1777 9.86914 40.3809 9.89648 40.5566 9.95117C40.7363 10.0059 40.8887 10.0938 41.0137 10.2148C41.1348 10.3359 41.2266 10.4941 41.2891 10.6895C41.3516 10.8848 41.3828 11.123 41.3828 11.4043V15.4062H42.4668V11.3809C42.4668 10.959 42.4141 10.5957 42.3086 10.291C42.207 9.98242 42.0605 9.72852 41.8691 9.5293C41.6777 9.33008 41.4453 9.18359 41.1719 9.08984C40.9023 8.99609 40.6016 8.94922 40.2695 8.94922C40.0234 8.95312 39.7891 8.99023 39.5664 9.06055C39.3477 9.12695 39.1445 9.22266 38.957 9.34766C38.832 9.42969 38.7129 9.52734 38.5996 9.64062C38.4902 9.75 38.3887 9.87109 38.2949 10.0039L38.2188 9.06641H37.2461V15.4062ZM49.1992 11.6387V10.7188H45.6484V7.80078H49.791V6.875H44.5527V15.4062H45.6484V11.6387H49.1992ZM51.8301 9.06641V10.0098H53.9863V14.4688H51.8301V15.4062H57.1387V14.4688H55.0703V9.06641H51.8301ZM53.8457 7.40234C53.8457 7.57812 53.8984 7.72461 54.0039 7.8418C54.1133 7.95898 54.2773 8.01758 54.4961 8.01758C54.7109 8.01758 54.873 7.95898 54.9824 7.8418C55.0918 7.72461 55.1465 7.57812 55.1465 7.40234C55.1465 7.30469 55.1309 7.21484 55.0996 7.13281C55.0684 7.05078 55.0215 6.98242 54.959 6.92773C54.9082 6.87695 54.8438 6.83789 54.7656 6.81055C54.6875 6.7793 54.5977 6.76367 54.4961 6.76367C54.3945 6.76367 54.3027 6.7793 54.2207 6.81055C54.1426 6.83789 54.0781 6.87695 54.0273 6.92773C53.9648 6.98633 53.918 7.05664 53.8867 7.13867C53.8594 7.2207 53.8457 7.30859 53.8457 7.40234ZM58.8672 15.4062H59.9512V10.8594C60.0254 10.7227 60.1113 10.5977 60.209 10.4844C60.3105 10.3711 60.4199 10.2715 60.5371 10.1855C60.6816 10.0879 60.8398 10.0117 61.0117 9.95703C61.1836 9.89844 61.3691 9.86914 61.5684 9.86914C61.7988 9.86914 62.002 9.89648 62.1777 9.95117C62.3574 10.0059 62.5098 10.0938 62.6348 10.2148C62.7559 10.3359 62.8477 10.4941 62.9102 10.6895C62.9727 10.8848 63.0039 11.123 63.0039 11.4043V15.4062H64.0879V11.3809C64.0879 10.959 64.0352 10.5957 63.9297 10.291C63.8281 9.98242 63.6816 9.72852 63.4902 9.5293C63.2988 9.33008 63.0664 9.18359 62.793 9.08984C62.5234 8.99609 62.2227 8.94922 61.8906 8.94922C61.6445 8.95312 61.4102 8.99023 61.1875 9.06055C60.9688 9.12695 60.7656 9.22266 60.5781 9.34766C60.4531 9.42969 60.334 9.52734 60.2207 9.64062C60.1113 9.75 60.0098 9.87109 59.916 10.0039L59.8398 9.06641H58.8672V15.4062ZM70.2402 15.4062H71.3711V15.3125C71.3008 15.1367 71.2461 14.9316 71.207 14.6973C71.168 14.459 71.1484 14.2344 71.1484 14.0234V11.0762C71.1484 10.7207 71.084 10.4102 70.9551 10.1445C70.8262 9.87891 70.6504 9.65625 70.4277 9.47656C70.2012 9.30078 69.9336 9.16992 69.625 9.08398C69.3164 8.99414 68.9824 8.94922 68.623 8.94922C68.2285 8.94922 67.875 9.00391 67.5625 9.11328C67.2539 9.22266 66.9922 9.36523 66.7773 9.54102C66.5586 9.7207 66.3906 9.92188 66.2734 10.1445C66.1602 10.3672 66.1016 10.5938 66.0977 10.8242H67.1875C67.1875 10.6914 67.2188 10.5645 67.2812 10.4434C67.3477 10.3184 67.4395 10.2109 67.5566 10.1211C67.6738 10.0312 67.8164 9.95898 67.9844 9.9043C68.1562 9.84961 68.3496 9.82227 68.5645 9.82227C68.7949 9.82227 69.002 9.85156 69.1855 9.91016C69.373 9.96875 69.5312 10.0508 69.6602 10.1562C69.7891 10.2656 69.8887 10.3965 69.959 10.5488C70.0293 10.7012 70.0645 10.873 70.0645 11.0645V11.5625H68.8809C68.4395 11.5625 68.0391 11.6055 67.6797 11.6914C67.3242 11.7773 67.0195 11.9062 66.7656 12.0781C66.5117 12.2539 66.3145 12.4727 66.1738 12.7344C66.0371 12.9961 65.9688 13.3008 65.9688 13.6484C65.9688 13.9141 66.0195 14.1621 66.1211 14.3926C66.2266 14.6191 66.375 14.8145 66.5664 14.9785C66.7539 15.1465 66.9824 15.2793 67.252 15.377C67.5254 15.4746 67.8301 15.5234 68.166 15.5234C68.373 15.5234 68.5684 15.502 68.752 15.459C68.9355 15.416 69.1094 15.3574 69.2734 15.2832C69.4336 15.209 69.5801 15.123 69.7129 15.0254C69.8496 14.9277 69.9727 14.8242 70.082 14.7148C70.0938 14.8477 70.1113 14.9766 70.1348 15.1016C70.1621 15.2227 70.1973 15.3242 70.2402 15.4062ZM68.3242 14.5801C68.1133 14.5801 67.9277 14.5527 67.7676 14.498C67.6074 14.4434 67.4746 14.3672 67.3691 14.2695C67.2637 14.1758 67.1836 14.0625 67.1289 13.9297C67.0781 13.7969 67.0527 13.6523 67.0527 13.4961C67.0527 13.332 67.082 13.1855 67.1406 13.0566C67.2031 12.9277 67.293 12.8164 67.4102 12.7227C67.5742 12.5898 67.7949 12.4922 68.0723 12.4297C68.3535 12.3633 68.6816 12.3301 69.0566 12.3301H70.0645V13.6133C70.002 13.7383 69.916 13.8594 69.8066 13.9766C69.6973 14.0898 69.5684 14.1914 69.4199 14.2812C69.2676 14.3711 69.0996 14.4434 68.916 14.498C68.7324 14.5527 68.5352 14.5801 68.3242 14.5801ZM73.2812 15.4062H74.3652V10.8594C74.4395 10.7227 74.5254 10.5977 74.623 10.4844C74.7246 10.3711 74.834 10.2715 74.9512 10.1855C75.0957 10.0879 75.2539 10.0117 75.4258 9.95703C75.5977 9.89844 75.7832 9.86914 75.9824 9.86914C76.2129 9.86914 76.416 9.89648 76.5918 9.95117C76.7715 10.0059 76.9238 10.0938 77.0488 10.2148C77.1699 10.3359 77.2617 10.4941 77.3242 10.6895C77.3867 10.8848 77.418 11.123 77.418 11.4043V15.4062H78.502V11.3809C78.502 10.959 78.4492 10.5957 78.3438 10.291C78.2422 9.98242 78.0957 9.72852 77.9043 9.5293C77.7129 9.33008 77.4805 9.18359 77.207 9.08984C76.9375 8.99609 76.6367 8.94922 76.3047 8.94922C76.0586 8.95312 75.8242 8.99023 75.6016 9.06055C75.3828 9.12695 75.1797 9.22266 74.9922 9.34766C74.8672 9.42969 74.748 9.52734 74.6348 9.64062C74.5254 9.75 74.4238 9.87109 74.3301 10.0039L74.2539 9.06641H73.2812V15.4062ZM83.1895 14.6445C82.8496 14.6445 82.5645 14.5781 82.334 14.4453C82.1074 14.3086 81.9258 14.1309 81.7891 13.9121C81.6484 13.6973 81.5469 13.4551 81.4844 13.1855C81.4258 12.9121 81.3965 12.6367 81.3965 12.3594V12.1133C81.3965 11.8398 81.4258 11.5684 81.4844 11.2988C81.5469 11.0293 81.6484 10.7852 81.7891 10.5664C81.9297 10.3516 82.1133 10.1777 82.3398 10.0449C82.5703 9.9082 82.8535 9.83984 83.1895 9.83984C83.4082 9.83984 83.6113 9.87695 83.7988 9.95117C83.9902 10.0254 84.1543 10.127 84.291 10.2559C84.4277 10.3848 84.5352 10.5352 84.6133 10.707C84.6953 10.875 84.7383 11.0547 84.7422 11.2461H85.7676C85.7676 10.9258 85.7031 10.625 85.5742 10.3438C85.4453 10.0625 85.2676 9.81836 85.041 9.61133C84.8105 9.4082 84.5371 9.24805 84.2207 9.13086C83.9082 9.00977 83.5645 8.94922 83.1895 8.94922C82.709 8.94922 82.2891 9.03516 81.9297 9.20703C81.5703 9.37891 81.2715 9.60938 81.0332 9.89844C80.791 10.1914 80.6094 10.5293 80.4883 10.9121C80.3672 11.2949 80.3066 11.6953 80.3066 12.1133V12.3594C80.3066 12.7812 80.3672 13.1836 80.4883 13.5664C80.6094 13.9453 80.791 14.2793 81.0332 14.5684C81.2715 14.8613 81.5703 15.0938 81.9297 15.2656C82.2891 15.4375 82.709 15.5234 83.1895 15.5234C83.5254 15.5234 83.8477 15.4668 84.1562 15.3535C84.4648 15.2363 84.7383 15.0801 84.9766 14.8848C85.2148 14.6934 85.4043 14.4707 85.5449 14.2168C85.6895 13.959 85.7637 13.6895 85.7676 13.4082H84.7422C84.7383 13.584 84.6914 13.748 84.6016 13.9004C84.5156 14.0488 84.4004 14.1777 84.2559 14.2871C84.1113 14.4004 83.9453 14.4883 83.7578 14.5508C83.5742 14.6133 83.3848 14.6445 83.1895 14.6445ZM83.5996 15.4062H82.8203L82.6387 16.1914C82.7949 16.2031 82.9316 16.2207 83.0488 16.2441C83.166 16.2676 83.2656 16.2988 83.3477 16.3379C83.4258 16.3809 83.4844 16.4355 83.5234 16.502C83.5625 16.5684 83.582 16.6504 83.582 16.748C83.582 16.8535 83.5547 16.9414 83.5 17.0117C83.4492 17.0859 83.3809 17.1465 83.2949 17.1934C83.2051 17.2402 83.1016 17.2734 82.9844 17.293C82.8672 17.3164 82.7422 17.3281 82.6094 17.3281L82.6504 17.9551C82.8887 17.9551 83.1055 17.9336 83.3008 17.8906C83.5 17.8477 83.6719 17.7891 83.8164 17.7148C84.0117 17.6094 84.1621 17.4727 84.2676 17.3047C84.373 17.1367 84.4258 16.9434 84.4258 16.7246C84.4258 16.5566 84.4004 16.4121 84.3496 16.291C84.2988 16.1738 84.2324 16.0762 84.1504 15.998C84.0645 15.9199 83.9668 15.8574 83.8574 15.8105C83.752 15.7637 83.6426 15.7305 83.5293 15.7109L83.5996 15.4062ZM91.8613 15.4062H92.9922V15.3125C92.9219 15.1367 92.8672 14.9316 92.8281 14.6973C92.7891 14.459 92.7695 14.2344 92.7695 14.0234V11.0762C92.7695 10.7207 92.7051 10.4102 92.5762 10.1445C92.4473 9.87891 92.2715 9.65625 92.0488 9.47656C91.8223 9.30078 91.5547 9.16992 91.2461 9.08398C90.9375 8.99414 90.6035 8.94922 90.2441 8.94922C89.8496 8.94922 89.4961 9.00391 89.1836 9.11328C88.875 9.22266 88.6133 9.36523 88.3984 9.54102C88.1797 9.7207 88.0117 9.92188 87.8945 10.1445C87.7812 10.3672 87.7227 10.5938 87.7188 10.8242H88.8086C88.8086 10.6914 88.8398 10.5645 88.9023 10.4434C88.9688 10.3184 89.0605 10.2109 89.1777 10.1211C89.2949 10.0312 89.4375 9.95898 89.6055 9.9043C89.7773 9.84961 89.9707 9.82227 90.1855 9.82227C90.416 9.82227 90.623 9.85156 90.8066 9.91016C90.9941 9.96875 91.1523 10.0508 91.2812 10.1562C91.4102 10.2656 91.5098 10.3965 91.5801 10.5488C91.6504 10.7012 91.6855 10.873 91.6855 11.0645V11.5625H90.502C90.0605 11.5625 89.6602 11.6055 89.3008 11.6914C88.9453 11.7773 88.6406 11.9062 88.3867 12.0781C88.1328 12.2539 87.9355 12.4727 87.7949 12.7344C87.6582 12.9961 87.5898 13.3008 87.5898 13.6484C87.5898 13.9141 87.6406 14.1621 87.7422 14.3926C87.8477 14.6191 87.9961 14.8145 88.1875 14.9785C88.375 15.1465 88.6035 15.2793 88.873 15.377C89.1465 15.4746 89.4512 15.5234 89.7871 15.5234C89.9941 15.5234 90.1895 15.502 90.373 15.459C90.5566 15.416 90.7305 15.3574 90.8945 15.2832C91.0547 15.209 91.2012 15.123 91.334 15.0254C91.4707 14.9277 91.5938 14.8242 91.7031 14.7148C91.7148 14.8477 91.7324 14.9766 91.7559 15.1016C91.7832 15.2227 91.8184 15.3242 91.8613 15.4062ZM89.9453 14.5801C89.7344 14.5801 89.5488 14.5527 89.3887 14.498C89.2285 14.4434 89.0957 14.3672 88.9902 14.2695C88.8848 14.1758 88.8047 14.0625 88.75 13.9297C88.6992 13.7969 88.6738 13.6523 88.6738 13.4961C88.6738 13.332 88.7031 13.1855 88.7617 13.0566C88.8242 12.9277 88.9141 12.8164 89.0312 12.7227C89.1953 12.5898 89.416 12.4922 89.6934 12.4297C89.9746 12.3633 90.3027 12.3301 90.6777 12.3301H91.6855V13.6133C91.623 13.7383 91.5371 13.8594 91.4277 13.9766C91.3184 14.0898 91.1895 14.1914 91.041 14.2812C90.8887 14.3711 90.7207 14.4434 90.5371 14.498C90.3535 14.5527 90.1562 14.5801 89.9453 14.5801Z" fill="white"/>
</svg>
